<svg id="Layer_1" data-name="Layer 1" xmlns="http://www.w3.org/2000/svg" viewBox="0 0 70.82 42.18"><defs><style>.cls-1{fill:#2f2f2f;}.cls-2{fill:#dc1e3d;}</style></defs><path class="cls-1" d="M36.44,15.77c8.1,0,16.05-.34,24,.1,7.53.42,11.69,6.62,9.81,13.62a8.14,8.14,0,0,1-5.16,5.61c3.22,1.43,5.32,3.57,6,6.88A12,12,0,0,1,60,56.85c-7.36.28-14.74.14-22.11.16-7.08,0-14.16,0-21.23,0-.56,0-1.12,0-1.87-.08,1.3-2.23,2.43-4.33,3.74-6.31a2.53,2.53,0,0,1,1.87-.76c11.46,0,22.93,0,34.39-.06a21.53,21.53,0,0,0,5.36-.69c2.77-.74,3.94-2.57,3.78-5.32a4.46,4.46,0,0,0-4.27-4.52,71.24,71.24,0,0,0-8.4-.26,1.86,1.86,0,0,1-1.92-1.09c-.83-1.59-1.78-3.13-2.82-4.92.71,0,1.24-.08,1.78-.09,3.68-.08,7.36,0,11-.28a3.82,3.82,0,0,0,3.86-3.79c.29-2.81-.55-4.57-2.91-5.29a17.84,17.84,0,0,0-4.82-.71c-4.51-.09-9-.06-13.51,0a2,2,0,0,1-2.06-1.14C38.8,19.69,37.6,17.76,36.44,15.77Z" transform="translate(-0.59 -14.91)"/><path class="cls-1" d="M27.68,25.24C21.74,35.29,15.92,45.05,10.22,54.88c-.94,1.62-1.89,2.39-3.8,2.18A53.32,53.32,0,0,0,.59,57L8,44.71Q16,31.36,24,18c.21-.35.41-.71.64-1,1.85-2.71,4.81-2.76,6.57,0,2.23,3.49,4.3,7.08,6.44,10.62q4.74,7.88,9.47,15.74c.26.44.49.9.84,1.56-2.77,0-5.32.07-7.86-.06-.51,0-1.13-.68-1.44-1.21C35.3,38,32,32.4,28.65,26.79,28.39,26.35,28.11,25.92,27.68,25.24Z" transform="translate(-0.59 -14.91)"/><path class="cls-2" d="M22,42.66c2-3.48,3.92-6.79,6-10.31l6,10.31Z" transform="translate(-0.59 -14.91)"/></svg>